<?xml version="1.0" standalone="no"?>
<!DOCTYPE svg PUBLIC "-//W3C//DTD SVG 20010904//EN"
 "http://www.w3.org/TR/2001/REC-SVG-20010904/DTD/svg10.dtd">
<svg version="1.0" xmlns="http://www.w3.org/2000/svg"
 width="1964.000000pt" height="1964.000000pt" viewBox="0 0 1964.000000 1964.000000"
 preserveAspectRatio="xMidYMid meet">
<metadata>
Created by potrace 1.11, written by Peter Selinger 2001-2013
</metadata>
<g transform="translate(0.000000,1964.000000) scale(0.100000,-0.100000)"
fill="#000000" stroke="none">
<path d="M10052 19629 c-34 -4 -78 -10 -97 -13 -19 -3 -52 -9 -72 -12 -64 -9
-256 -62 -344 -94 -202 -75 -418 -199 -599 -345 -111 -90 -164 -140 -320 -305
-63 -66 -179 -227 -260 -360 -54 -88 -160 -302 -160 -322 0 -8 -4 -18 -8 -23
-30 -34 -121 -362 -137 -495 -16 -128 -19 -176 -20 -315 0 -157 6 -239 25
-360 103 -636 460 -1252 1091 -1884 151 -151 452 -420 565 -506 24 -18 59 -17
-376 -17 -1136 0 -1505 3 -1516 13 -13 11 -5407 19 -5426 8 -11 -7 -6 -304 7
-379 49 -291 76 -397 149 -577 74 -185 159 -334 274 -483 80 -103 235 -260
317 -320 33 -25 62 -48 65 -51 3 -4 48 -34 100 -68 172 -112 423 -223 657
-292 l73 -21 56 -96 c83 -142 229 -347 327 -460 68 -80 277 -283 362 -354 127
-106 306 -227 490 -330 194 -110 561 -250 823 -314 l112 -27 0 -2028 0 -2028
-54 -36 c-82 -54 -141 -132 -170 -226 -45 -148 -10 -309 94 -420 40 -43 40
-44 18 -51 -13 -4 -221 -64 -463 -133 -242 -70 -588 -169 -770 -222 -181 -52
-337 -97 -345 -99 -8 -2 -53 -14 -100 -28 -124 -36 -470 -134 -505 -144 -28
-7 -33 -16 -96 -202 -37 -107 -69 -202 -72 -210 -3 -8 -11 -33 -17 -55 -6 -22
-15 -49 -20 -60 -5 -11 -38 -108 -74 -215 -36 -107 -107 -316 -157 -465 -50
-148 -98 -289 -105 -313 l-13 -42 42 23 c78 44 236 97 361 123 97 20 281 25
371 10 195 -32 370 -124 518 -273 43 -43 95 -104 116 -135 l38 -57 -1 147 c0
81 2 165 6 187 23 134 106 221 201 209 45 -5 126 -32 147 -48 8 -6 26 -17 40
-25 14 -8 36 -21 49 -30 20 -12 -71 114 -156 219 -7 8 -84 110 -173 225 -88
116 -166 217 -173 225 -7 8 -57 74 -111 145 -55 72 -128 167 -163 211 -35 45
-63 86 -63 91 0 6 187 64 350 108 8 2 56 16 105 30 50 15 98 28 108 30 10 2
57 16 105 30 48 14 116 34 152 45 36 10 92 26 125 36 57 15 342 98 450 129
116 35 331 96 348 100 10 2 27 7 38 10 19 6 19 -28 20 -2117 1 -1168 3 -2161
4 -2208 2 -47 6 -173 9 -280 18 -584 23 -735 26 -907 1 -51 5 -93 9 -93 3 0
26 33 51 73 27 43 93 120 165 192 217 219 453 344 720 383 67 9 305 9 380 -1
68 -9 228 -48 294 -72 24 -8 47 -15 51 -15 4 0 -5 26 -21 58 -29 60 -72 196
-84 267 -10 57 -6 173 6 220 28 102 101 192 194 239 44 22 197 70 202 64 1 -2
5 0 9 4 4 5 -6 9 -22 9 -16 1 -38 3 -49 4 -44 6 -121 17 -135 20 -9 2 -43 7
-75 11 -33 4 -62 8 -65 9 -5 1 -77 11 -140 20 -40 5 -112 16 -145 21 -31 6
-58 9 -135 19 -25 3 -74 10 -110 16 -36 5 -76 12 -90 14 -81 11 -128 18 -147
20 -13 2 -40 6 -60 9 -21 4 -51 8 -68 10 -16 2 -52 7 -80 12 -27 4 -57 8 -65
9 -8 1 -57 8 -107 15 l-93 14 0 2046 0 2047 78 22 c42 12 84 24 93 26 9 2 32
8 50 13 19 6 216 63 439 127 223 64 468 135 545 157 77 22 154 44 170 48 29 8
296 85 540 157 66 19 136 39 155 44 39 11 42 11 120 34 130 38 161 44 227 49
124 9 226 62 295 153 66 87 97 226 72 329 -23 100 -92 193 -184 250 l-58 36
-83 186 c-45 103 -90 205 -99 227 -10 22 -50 114 -90 205 -90 204 -85 193
-213 485 -58 132 -155 355 -217 495 -165 374 -283 645 -360 820 -71 165 -95
217 -141 318 -16 35 -29 65 -29 67 0 3 -16 39 -35 81 -19 41 -35 77 -35 78 0
2 -12 30 -27 62 -15 33 -27 61 -28 64 -3 9 -23 54 -105 240 -44 102 -82 189
-83 193 -1 5 25 10 58 12 70 3 209 15 245 20 14 2 54 7 90 10 36 4 72 9 81 10
9 2 40 6 70 10 77 9 340 62 429 86 41 12 84 23 96 25 47 9 287 89 401 134 133
53 312 138 413 195 36 21 79 46 97 56 311 178 663 493 900 805 262 346 487
792 604 1198 29 98 50 178 54 196 2 8 10 42 18 75 9 33 18 71 21 85 3 14 10
43 15 65 5 22 12 58 15 80 3 22 10 65 15 95 6 30 13 75 16 100 4 24 8 47 10
50 1 3 6 48 10 100 4 52 9 104 11 115 2 10 6 91 9 180 l6 160 -53 40 c-57 43
-319 268 -408 350 -30 27 -81 75 -114 105 -100 92 -496 489 -582 585 -145 160
-166 185 -264 303 -264 323 -474 640 -599 905 -63 134 -122 289 -142 377 -6
25 -13 54 -15 65 -3 11 -8 34 -10 50 -3 17 -9 50 -14 74 -11 60 -10 256 2 322
32 184 115 349 248 492 202 218 500 378 770 412 29 4 62 9 74 11 40 9 272 5
356 -6 109 -13 131 -17 209 -36 36 -9 74 -18 85 -20 140 -27 582 -206 716
-289 19 -12 38 -23 43 -23 4 -1 17 -8 30 -15 12 -8 67 -40 122 -72 167 -97
586 -380 615 -415 3 -3 21 -17 40 -30 19 -13 37 -27 40 -30 3 -3 39 -32 80
-65 92 -73 257 -212 325 -272 l50 -45 -66 -133 c-138 -279 -200 -541 -194
-820 4 -163 21 -265 69 -408 70 -209 164 -374 331 -576 130 -158 381 -377 590
-513 95 -62 262 -149 365 -191 82 -33 255 -83 323 -93 124 -19 292 -23 408
-10 141 15 372 87 499 154 88 47 134 73 145 83 5 5 15 9 23 9 16 0 192 -138
192 -151 0 -4 -25 -40 -55 -81 -132 -176 -192 -378 -164 -558 9 -61 63 -194
91 -225 7 -8 24 -29 37 -47 14 -18 54 -60 91 -92 242 -215 523 -235 812 -60
45 28 62 34 68 24 13 -21 58 -201 67 -265 13 -96 7 -273 -12 -365 -21 -104
-73 -242 -122 -324 -20 -34 -39 -65 -42 -71 -3 -5 22 13 54 40 354 297 572
568 707 875 50 114 71 179 99 310 15 71 18 120 15 295 -3 195 -5 218 -33 325
-94 359 -346 753 -654 1024 -40 36 -86 79 -279 261 -36 33 -101 92 -145 129
-44 38 -93 81 -110 95 -16 14 -120 103 -230 196 -110 93 -202 172 -205 175 -3
3 -34 30 -70 59 -36 30 -70 60 -75 65 -6 6 -39 36 -75 66 -36 30 -74 62 -85
72 -109 95 -199 167 -205 165 -9 -2 -67 43 -135 104 -22 20 -215 188 -430 373
-371 321 -489 425 -580 512 -38 36 -205 188 -285 258 -19 17 -73 63 -120 102
-772 642 -1532 1095 -2234 1329 -106 35 -272 82 -356 100 -103 22 -211 42
-280 51 -25 3 -56 8 -70 11 -45 9 -483 11 -548 2z m-3228 -8895 c16 -3 168
-12 300 -17 l39 -2 64 -145 c35 -80 70 -159 78 -175 12 -28 36 -83 40 -95 1
-3 12 -27 24 -55 13 -27 36 -79 51 -115 31 -71 54 -124 220 -500 62 -140 134
-306 162 -369 27 -63 55 -129 63 -145 63 -140 122 -276 201 -457 18 -42 44
-103 59 -135 15 -33 46 -104 70 -159 24 -55 80 -183 125 -285 45 -102 136
-309 202 -460 66 -151 130 -297 143 -325 12 -27 33 -75 45 -105 13 -30 27 -59
32 -65 14 -16 9 -31 -26 -84 -44 -65 -69 -141 -70 -214 l0 -57 -41 -11 c-22
-6 -62 -17 -90 -26 -48 -14 -184 -53 -325 -93 -36 -10 -245 -70 -465 -133
-220 -64 -512 -148 -649 -187 -137 -39 -256 -74 -264 -78 -12 -4 -14 -1 -8 14
4 10 10 53 13 95 9 128 -40 253 -135 344 l-42 39 0 2009 0 2009 83 -7 c45 -4
91 -9 101 -11z"/>
</g>
</svg>
